<svg width="177" height="66" viewBox="0 0 177 66" fill="none" xmlns="http://www.w3.org/2000/svg">
<path d="M75.6441 30.196C74.4495 30.196 73.4975 29.86 72.7881 29.188C72.0788 28.5067 71.7241 27.5313 71.7241 26.262V23.938C71.7241 22.6687 72.0788 21.698 72.7881 21.026C73.4975 20.3447 74.4495 20.004 75.6441 20.004C76.8388 20.004 77.7581 20.3307 78.4021 20.984C79.0555 21.6373 79.3821 22.5333 79.3821 23.672V23.756H77.7301V23.63C77.7301 23.014 77.5575 22.51 77.2121 22.118C76.8761 21.7167 76.3535 21.516 75.6441 21.516C74.9535 21.516 74.4075 21.7307 74.0061 22.16C73.6141 22.58 73.4181 23.1633 73.4181 23.91V26.29C73.4181 27.0273 73.6141 27.6107 74.0061 28.04C74.4075 28.4693 74.9535 28.684 75.6441 28.684C76.3535 28.684 76.8761 28.488 77.2121 28.096C77.5575 27.6947 77.7301 27.186 77.7301 26.57V26.332H79.3821V26.528C79.3821 27.6667 79.0555 28.5627 78.4021 29.216C77.7581 29.8693 76.8388 30.196 75.6441 30.196ZM81.0142 30V20.2H82.6242V30H81.0142ZM87.9406 30.196C87.25 30.196 86.6293 30.056 86.0786 29.776C85.5373 29.4867 85.108 29.0807 84.7906 28.558C84.4826 28.026 84.3286 27.3913 84.3286 26.654V26.43C84.3286 25.6927 84.4826 25.058 84.7906 24.526C85.108 23.994 85.5373 23.588 86.0786 23.308C86.6293 23.028 87.25 22.888 87.9406 22.888C88.6313 22.888 89.2473 23.028 89.7886 23.308C90.33 23.588 90.7546 23.994 91.0626 24.526C91.38 25.058 91.5386 25.6927 91.5386 26.43V26.654C91.5386 27.3913 91.38 28.026 91.0626 28.558C90.7546 29.0807 90.33 29.4867 89.7886 29.776C89.2473 30.056 88.6313 30.196 87.9406 30.196ZM87.9406 28.768C88.5286 28.768 89.0093 28.5813 89.3826 28.208C89.756 27.8253 89.9426 27.2933 89.9426 26.612V26.472C89.9426 25.7907 89.756 25.2633 89.3826 24.89C89.0093 24.5073 88.5286 24.316 87.9406 24.316C87.3526 24.316 86.872 24.5073 86.4986 24.89C86.1253 25.2633 85.9386 25.7907 85.9386 26.472V26.612C85.9386 27.2933 86.1253 27.8253 86.4986 28.208C86.872 28.5813 87.3526 28.768 87.9406 28.768ZM95.3926 30.196C94.9072 30.196 94.4686 30.112 94.0766 29.944C93.6846 29.7667 93.3719 29.5147 93.1386 29.188C92.9146 28.8613 92.8026 28.46 92.8026 27.984C92.8026 27.5173 92.9146 27.1253 93.1386 26.808C93.3719 26.4907 93.6892 26.2527 94.0906 26.094C94.4919 25.926 94.9492 25.842 95.4626 25.842H97.4646V25.422C97.4646 25.058 97.3526 24.764 97.1286 24.54C96.9046 24.3067 96.5546 24.19 96.0786 24.19C95.6119 24.19 95.2572 24.302 95.0146 24.526C94.7812 24.7407 94.6272 25.0207 94.5526 25.366L93.0686 24.876C93.1806 24.512 93.3579 24.1807 93.6006 23.882C93.8526 23.5833 94.1839 23.3453 94.5946 23.168C95.0052 22.9813 95.5092 22.888 96.1066 22.888C97.0119 22.888 97.7212 23.1167 98.2346 23.574C98.7572 24.022 99.0186 24.6753 99.0186 25.534V28.25C99.0186 28.53 99.1492 28.67 99.4106 28.67H99.9986V30H98.8646C98.5286 30 98.2532 29.916 98.0386 29.748C97.8239 29.58 97.7166 29.3513 97.7166 29.062V29.034H97.4786C97.4226 29.1647 97.3246 29.3233 97.1846 29.51C97.0446 29.6967 96.8299 29.86 96.5406 30C96.2606 30.1307 95.8779 30.196 95.3926 30.196ZM95.6586 28.88C96.1906 28.88 96.6246 28.7307 96.9606 28.432C97.2966 28.124 97.4646 27.7133 97.4646 27.2V27.06H95.5606C95.2152 27.06 94.9352 27.1347 94.7206 27.284C94.5059 27.4333 94.3986 27.6527 94.3986 27.942C94.3986 28.222 94.5106 28.4507 94.7346 28.628C94.9586 28.796 95.2666 28.88 95.6586 28.88ZM101.331 30V20.2H102.941V25.702H103.179L105.671 23.084H107.785L104.439 26.43L107.897 30H105.811L103.179 27.186H102.941V30H101.331ZM112.65 30V20.2H116.612C117.228 20.2 117.769 20.3213 118.236 20.564C118.702 20.8067 119.071 21.152 119.342 21.6C119.612 22.0387 119.748 22.5613 119.748 23.168V23.364C119.748 23.9613 119.608 24.484 119.328 24.932C119.057 25.38 118.684 25.7253 118.208 25.968C117.741 26.2107 117.209 26.332 116.612 26.332H114.344V30H112.65ZM114.344 24.806H116.444C116.929 24.806 117.316 24.6753 117.606 24.414C117.904 24.1527 118.054 23.7933 118.054 23.336V23.196C118.054 22.7387 117.909 22.3793 117.62 22.118C117.33 21.8567 116.938 21.726 116.444 21.726H114.344V24.806ZM121.141 30V20.2H122.751V30H121.141ZM126.934 30.196C126.448 30.196 126.01 30.112 125.618 29.944C125.226 29.7667 124.913 29.5147 124.68 29.188C124.456 28.8613 124.344 28.46 124.344 27.984C124.344 27.5173 124.456 27.1253 124.68 26.808C124.913 26.4907 125.23 26.2527 125.632 26.094C126.033 25.926 126.49 25.842 127.004 25.842H129.006V25.422C129.006 25.058 128.894 24.764 128.67 24.54C128.446 24.3067 128.096 24.19 127.62 24.19C127.153 24.19 126.798 24.302 126.556 24.526C126.322 24.7407 126.168 25.0207 126.094 25.366L124.61 24.876C124.722 24.512 124.899 24.1807 125.142 23.882C125.394 23.5833 125.725 23.3453 126.136 23.168C126.546 22.9813 127.05 22.888 127.648 22.888C128.553 22.888 129.262 23.1167 129.776 23.574C130.298 24.022 130.56 24.6753 130.56 25.534V28.25C130.56 28.53 130.69 28.67 130.952 28.67H131.54V30H130.406C130.07 30 129.794 29.916 129.58 29.748C129.365 29.58 129.258 29.3513 129.258 29.062V29.034H129.02C128.964 29.1647 128.866 29.3233 128.726 29.51C128.586 29.6967 128.371 29.86 128.082 30C127.802 30.1307 127.419 30.196 126.934 30.196ZM127.2 28.88C127.732 28.88 128.166 28.7307 128.502 28.432C128.838 28.124 129.006 27.7133 129.006 27.2V27.06H127.102C126.756 27.06 126.476 27.1347 126.262 27.284C126.047 27.4333 125.94 27.6527 125.94 27.942C125.94 28.222 126.052 28.4507 126.276 28.628C126.5 28.796 126.808 28.88 127.2 28.88ZM135.011 30C134.563 30 134.204 29.8693 133.933 29.608C133.672 29.3373 133.541 28.9733 133.541 28.516V24.414H131.735V23.084H133.541V20.858H135.151V23.084H137.139V24.414H135.151V28.25C135.151 28.53 135.282 28.67 135.543 28.67H136.929V30H135.011ZM139.626 30V24.414H137.778V23.084H139.626V21.684C139.626 21.2267 139.757 20.8673 140.018 20.606C140.289 20.3353 140.644 20.2 141.082 20.2H142.874V21.53H141.614C141.353 21.53 141.222 21.67 141.222 21.95V23.084H143.126V24.414H141.222V30H139.626ZM147.55 30.196C146.859 30.196 146.239 30.056 145.688 29.776C145.147 29.4867 144.717 29.0807 144.4 28.558C144.092 28.026 143.938 27.3913 143.938 26.654V26.43C143.938 25.6927 144.092 25.058 144.4 24.526C144.717 23.994 145.147 23.588 145.688 23.308C146.239 23.028 146.859 22.888 147.55 22.888C148.241 22.888 148.857 23.028 149.398 23.308C149.939 23.588 150.364 23.994 150.672 24.526C150.989 25.058 151.148 25.6927 151.148 26.43V26.654C151.148 27.3913 150.989 28.026 150.672 28.558C150.364 29.0807 149.939 29.4867 149.398 29.776C148.857 30.056 148.241 30.196 147.55 30.196ZM147.55 28.768C148.138 28.768 148.619 28.5813 148.992 28.208C149.365 27.8253 149.552 27.2933 149.552 26.612V26.472C149.552 25.7907 149.365 25.2633 148.992 24.89C148.619 24.5073 148.138 24.316 147.55 24.316C146.962 24.316 146.481 24.5073 146.108 24.89C145.735 25.2633 145.548 25.7907 145.548 26.472V26.612C145.548 27.2933 145.735 27.8253 146.108 28.208C146.481 28.5813 146.962 28.768 147.55 28.768ZM152.86 30V23.084H154.442V23.882H154.68C154.783 23.5927 154.955 23.3827 155.198 23.252C155.441 23.1213 155.73 23.056 156.066 23.056H156.906V24.484H156.038C155.571 24.484 155.193 24.61 154.904 24.862C154.615 25.1047 154.47 25.4827 154.47 25.996V30H152.86ZM158.329 30V23.084H159.911V23.854H160.149C160.27 23.6207 160.471 23.4153 160.751 23.238C161.04 23.0513 161.423 22.958 161.899 22.958C162.403 22.958 162.809 23.0607 163.117 23.266C163.425 23.4713 163.658 23.7327 163.817 24.05H164.041C164.199 23.7327 164.428 23.4713 164.727 23.266C165.025 23.0607 165.45 22.958 166.001 22.958C166.43 22.958 166.817 23.0513 167.163 23.238C167.517 23.4247 167.797 23.7 168.003 24.064C168.217 24.428 168.325 24.8807 168.325 25.422V30H166.715V25.534C166.715 25.1327 166.607 24.8293 166.393 24.624C166.178 24.4093 165.879 24.302 165.497 24.302C165.077 24.302 164.741 24.442 164.489 24.722C164.246 24.9927 164.125 25.3847 164.125 25.898V30H162.529V25.534C162.529 25.1327 162.421 24.8293 162.207 24.624C161.992 24.4093 161.693 24.302 161.311 24.302C160.881 24.302 160.545 24.442 160.303 24.722C160.06 24.9927 159.939 25.3847 159.939 25.898V30H158.329ZM173.161 30.196C172.265 30.196 171.528 30 170.949 29.608C170.371 29.216 170.021 28.642 169.899 27.886L171.383 27.508C171.449 27.8627 171.565 28.1427 171.733 28.348C171.901 28.5533 172.107 28.698 172.349 28.782C172.601 28.866 172.872 28.908 173.161 28.908C173.6 28.908 173.927 28.8287 174.141 28.67C174.365 28.5113 174.477 28.3107 174.477 28.068C174.477 27.816 174.37 27.6293 174.155 27.508C173.95 27.3867 173.633 27.284 173.203 27.2L172.769 27.13C172.293 27.0367 171.859 26.9107 171.467 26.752C171.075 26.584 170.758 26.36 170.515 26.08C170.282 25.7907 170.165 25.4267 170.165 24.988C170.165 24.316 170.413 23.798 170.907 23.434C171.411 23.07 172.069 22.888 172.881 22.888C173.656 22.888 174.295 23.0607 174.799 23.406C175.303 23.7513 175.63 24.2133 175.779 24.792L174.295 25.24C174.221 24.848 174.057 24.5727 173.805 24.414C173.553 24.246 173.245 24.162 172.881 24.162C172.508 24.162 172.219 24.2273 172.013 24.358C171.817 24.4887 171.719 24.6753 171.719 24.918C171.719 25.1607 171.822 25.3427 172.027 25.464C172.233 25.5853 172.508 25.674 172.853 25.73L173.287 25.814C173.801 25.9073 174.263 26.0287 174.673 26.178C175.093 26.3273 175.425 26.542 175.667 26.822C175.91 27.102 176.031 27.48 176.031 27.956C176.031 28.6747 175.77 29.23 175.247 29.622C174.734 30.0047 174.039 30.196 173.161 30.196Z" fill="#F4F4F5"/>
<path d="M74.1061 46.14C73.5795 46.14 73.1128 46.0467 72.7061 45.86C72.2995 45.6733 71.9795 45.4 71.7461 45.04C71.5195 44.6733 71.4061 44.23 71.4061 43.71V43.46H72.4761V43.71C72.4761 44.2033 72.6228 44.5733 72.9161 44.82C73.2161 45.0667 73.6128 45.19 74.1061 45.19C74.6061 45.19 74.9828 45.0867 75.2361 44.88C75.4895 44.6667 75.6161 44.3933 75.6161 44.06C75.6161 43.84 75.5561 43.66 75.4361 43.52C75.3161 43.38 75.1461 43.27 74.9261 43.19C74.7061 43.1033 74.4428 43.0233 74.1361 42.95L73.7661 42.86C73.3195 42.7533 72.9295 42.6233 72.5961 42.47C72.2695 42.31 72.0161 42.1 71.8361 41.84C71.6561 41.58 71.5661 41.2467 71.5661 40.84C71.5661 40.4267 71.6661 40.0733 71.8661 39.78C72.0728 39.4867 72.3561 39.26 72.7161 39.1C73.0761 38.94 73.4995 38.86 73.9861 38.86C74.4728 38.86 74.9061 38.9433 75.2861 39.11C75.6728 39.2767 75.9761 39.5233 76.1961 39.85C76.4161 40.1767 76.5261 40.5867 76.5261 41.08V41.44H75.4561V41.08C75.4561 40.78 75.3928 40.5367 75.2661 40.35C75.1461 40.1633 74.9761 40.0267 74.7561 39.94C74.5361 39.8533 74.2795 39.81 73.9861 39.81C73.5595 39.81 73.2261 39.9 72.9861 40.08C72.7528 40.2533 72.6361 40.4967 72.6361 40.81C72.6361 41.0233 72.6861 41.2 72.7861 41.34C72.8928 41.4733 73.0461 41.5833 73.2461 41.67C73.4461 41.7567 73.6961 41.8333 73.9961 41.9L74.3661 41.99C74.8195 42.09 75.2195 42.22 75.5661 42.38C75.9128 42.5333 76.1861 42.7433 76.3861 43.01C76.5861 43.2767 76.6861 43.62 76.6861 44.04C76.6861 44.46 76.5795 44.8267 76.3661 45.14C76.1595 45.4533 75.8628 45.7 75.4761 45.88C75.0895 46.0533 74.6328 46.14 74.1061 46.14ZM80.1099 46.14C79.6099 46.14 79.1732 46.0367 78.7999 45.83C78.4266 45.6167 78.1332 45.32 77.9199 44.94C77.7132 44.5533 77.6099 44.1067 77.6099 43.6V43.48C77.6099 42.9667 77.7132 42.52 77.9199 42.14C78.1266 41.7533 78.4132 41.4567 78.7799 41.25C79.1532 41.0367 79.5832 40.93 80.0699 40.93C80.5432 40.93 80.9566 41.0367 81.3099 41.25C81.6699 41.4567 81.9499 41.7467 82.1499 42.12C82.3499 42.4933 82.4499 42.93 82.4499 43.43V43.82H78.6599C78.6732 44.2533 78.8166 44.6 79.0899 44.86C79.3699 45.1133 79.7166 45.24 80.1299 45.24C80.5166 45.24 80.8066 45.1533 80.9999 44.98C81.1999 44.8067 81.3532 44.6067 81.4599 44.38L82.3099 44.82C82.2166 45.0067 82.0799 45.2033 81.8999 45.41C81.7266 45.6167 81.4966 45.79 81.2099 45.93C80.9232 46.07 80.5566 46.14 80.1099 46.14ZM78.6699 43.03H81.3999C81.3732 42.6567 81.2399 42.3667 80.9999 42.16C80.7599 41.9467 80.4466 41.84 80.0599 41.84C79.6732 41.84 79.3566 41.9467 79.1099 42.16C78.8699 42.3667 78.7232 42.6567 78.6699 43.03ZM85.9797 46.14C85.5064 46.14 85.0764 46.04 84.6897 45.84C84.3097 45.64 84.0064 45.35 83.7797 44.97C83.5597 44.59 83.4497 44.1333 83.4497 43.6V43.47C83.4497 42.9367 83.5597 42.4833 83.7797 42.11C84.0064 41.73 84.3097 41.44 84.6897 41.24C85.0764 41.0333 85.5064 40.93 85.9797 40.93C86.4531 40.93 86.8564 41.0167 87.1897 41.19C87.5231 41.3633 87.7897 41.5933 87.9897 41.88C88.1964 42.1667 88.3297 42.4833 88.3897 42.83L87.3897 43.04C87.3564 42.82 87.2864 42.62 87.1797 42.44C87.0731 42.26 86.9231 42.1167 86.7297 42.01C86.5364 41.9033 86.2931 41.85 85.9997 41.85C85.7131 41.85 85.4531 41.9167 85.2197 42.05C84.9931 42.1767 84.8131 42.3633 84.6797 42.61C84.5464 42.85 84.4797 43.1433 84.4797 43.49V43.58C84.4797 43.9267 84.5464 44.2233 84.6797 44.47C84.8131 44.7167 84.9931 44.9033 85.2197 45.03C85.4531 45.1567 85.7131 45.22 85.9997 45.22C86.4331 45.22 86.7631 45.11 86.9897 44.89C87.2164 44.6633 87.3597 44.3767 87.4197 44.03L88.4197 44.26C88.3397 44.6 88.1964 44.9133 87.9897 45.2C87.7897 45.4867 87.5231 45.7167 87.1897 45.89C86.8564 46.0567 86.4531 46.14 85.9797 46.14ZM91.4977 46.09C91.1244 46.09 90.791 46.0067 90.4977 45.84C90.2044 45.6733 89.9744 45.4367 89.8077 45.13C89.641 44.8233 89.5577 44.4567 89.5577 44.03V41.07H90.5877V43.96C90.5877 44.3867 90.6944 44.7033 90.9077 44.91C91.121 45.11 91.4177 45.21 91.7977 45.21C92.2177 45.21 92.5544 45.07 92.8077 44.79C93.0677 44.5033 93.1977 44.0933 93.1977 43.56V41.07H94.2277V46H93.2177V45.26H93.0577C92.9644 45.46 92.7977 45.65 92.5577 45.83C92.3177 46.0033 91.9644 46.09 91.4977 46.09ZM95.7503 46V41.07H96.7603V41.65H96.9203C97.0003 41.4433 97.1269 41.2933 97.3003 41.2C97.4803 41.1 97.7003 41.05 97.9603 41.05H98.5503V41.98H97.9203C97.5869 41.98 97.3136 42.0733 97.1003 42.26C96.8869 42.44 96.7803 42.72 96.7803 43.1V46H95.7503ZM101.702 46.14C101.202 46.14 100.765 46.0367 100.392 45.83C100.018 45.6167 99.725 45.32 99.5117 44.94C99.305 44.5533 99.2017 44.1067 99.2017 43.6V43.48C99.2017 42.9667 99.305 42.52 99.5117 42.14C99.7184 41.7533 100.005 41.4567 100.372 41.25C100.745 41.0367 101.175 40.93 101.662 40.93C102.135 40.93 102.548 41.0367 102.902 41.25C103.262 41.4567 103.542 41.7467 103.742 42.12C103.942 42.4933 104.042 42.93 104.042 43.43V43.82H100.252C100.265 44.2533 100.408 44.6 100.682 44.86C100.962 45.1133 101.308 45.24 101.722 45.24C102.108 45.24 102.398 45.1533 102.592 44.98C102.792 44.8067 102.945 44.6067 103.052 44.38L103.902 44.82C103.808 45.0067 103.672 45.2033 103.492 45.41C103.318 45.6167 103.088 45.79 102.802 45.93C102.515 46.07 102.148 46.14 101.702 46.14ZM100.262 43.03H102.992C102.965 42.6567 102.832 42.3667 102.592 42.16C102.352 41.9467 102.038 41.84 101.652 41.84C101.265 41.84 100.948 41.9467 100.702 42.16C100.462 42.3667 100.315 42.6567 100.262 43.03ZM110.68 46.14C110.2 46.14 109.83 46.0533 109.57 45.88C109.317 45.7067 109.127 45.5133 109 45.3H108.84V46H107.83V39H108.86V41.74H109.02C109.1 41.6067 109.207 41.48 109.34 41.36C109.474 41.2333 109.65 41.13 109.87 41.05C110.09 40.97 110.36 40.93 110.68 40.93C111.094 40.93 111.474 41.03 111.82 41.23C112.167 41.43 112.444 41.72 112.65 42.1C112.857 42.48 112.96 42.9333 112.96 43.46V43.61C112.96 44.1433 112.854 44.6 112.64 44.98C112.434 45.3533 112.157 45.64 111.81 45.84C111.47 46.04 111.094 46.14 110.68 46.14ZM110.38 45.24C110.827 45.24 111.194 45.0967 111.48 44.81C111.774 44.5233 111.92 44.1133 111.92 43.58V43.49C111.92 42.9633 111.777 42.5567 111.49 42.27C111.204 41.9833 110.834 41.84 110.38 41.84C109.94 41.84 109.574 41.9833 109.28 42.27C108.994 42.5567 108.85 42.9633 108.85 43.49V43.58C108.85 44.1133 108.994 44.5233 109.28 44.81C109.574 45.0967 109.94 45.24 110.38 45.24ZM114.807 48V47.1H117.557C117.743 47.1 117.837 47 117.837 46.8V45.28H117.677C117.617 45.4133 117.523 45.5433 117.397 45.67C117.277 45.79 117.113 45.89 116.907 45.97C116.7 46.05 116.44 46.09 116.127 46.09C115.753 46.09 115.42 46.0067 115.127 45.84C114.833 45.6733 114.603 45.4367 114.437 45.13C114.27 44.8233 114.187 44.46 114.187 44.04V41.07H115.217V43.96C115.217 44.3867 115.323 44.7033 115.537 44.91C115.75 45.11 116.047 45.21 116.427 45.21C116.847 45.21 117.183 45.07 117.437 44.79C117.697 44.51 117.827 44.1033 117.827 43.57V41.07H118.857V47.01C118.857 47.31 118.767 47.55 118.587 47.73C118.413 47.91 118.173 48 117.867 48H114.807ZM124.968 46.14C124.561 46.14 124.185 46.04 123.838 45.84C123.491 45.64 123.211 45.3533 122.998 44.98C122.791 44.6 122.688 44.1433 122.688 43.61V43.46C122.688 42.9333 122.791 42.48 122.998 42.1C123.205 41.72 123.481 41.43 123.828 41.23C124.175 41.03 124.555 40.93 124.968 40.93C125.288 40.93 125.555 40.97 125.768 41.05C125.988 41.13 126.168 41.2333 126.308 41.36C126.448 41.48 126.555 41.6067 126.628 41.74H126.788V39H127.818V46H126.808V45.3H126.648C126.521 45.5133 126.328 45.7067 126.068 45.88C125.815 46.0533 125.448 46.14 124.968 46.14ZM125.258 45.24C125.705 45.24 126.071 45.0967 126.358 44.81C126.651 44.5233 126.798 44.1133 126.798 43.58V43.49C126.798 42.9633 126.655 42.5567 126.368 42.27C126.081 41.9833 125.711 41.84 125.258 41.84C124.818 41.84 124.451 41.9833 124.158 42.27C123.871 42.5567 123.728 42.9633 123.728 43.49V43.58C123.728 44.1133 123.871 44.5233 124.158 44.81C124.451 45.0967 124.818 45.24 125.258 45.24ZM131.594 46.14C131.094 46.14 130.658 46.0367 130.284 45.83C129.911 45.6167 129.618 45.32 129.404 44.94C129.198 44.5533 129.094 44.1067 129.094 43.6V43.48C129.094 42.9667 129.198 42.52 129.404 42.14C129.611 41.7533 129.898 41.4567 130.264 41.25C130.638 41.0367 131.068 40.93 131.554 40.93C132.028 40.93 132.441 41.0367 132.794 41.25C133.154 41.4567 133.434 41.7467 133.634 42.12C133.834 42.4933 133.934 42.93 133.934 43.43V43.82H130.144C130.158 44.2533 130.301 44.6 130.574 44.86C130.854 45.1133 131.201 45.24 131.614 45.24C132.001 45.24 132.291 45.1533 132.484 44.98C132.684 44.8067 132.838 44.6067 132.944 44.38L133.794 44.82C133.701 45.0067 133.564 45.2033 133.384 45.41C133.211 45.6167 132.981 45.79 132.694 45.93C132.408 46.07 132.041 46.14 131.594 46.14ZM130.154 43.03H132.884C132.858 42.6567 132.724 42.3667 132.484 42.16C132.244 41.9467 131.931 41.84 131.544 41.84C131.158 41.84 130.841 41.9467 130.594 42.16C130.354 42.3667 130.208 42.6567 130.154 43.03ZM137.194 46.14C136.567 46.14 136.047 46 135.634 45.72C135.221 45.44 134.967 45.0167 134.874 44.45L135.834 44.22C135.887 44.4933 135.977 44.71 136.104 44.87C136.231 45.03 136.387 45.1433 136.574 45.21C136.767 45.2767 136.974 45.31 137.194 45.31C137.521 45.31 137.771 45.2467 137.944 45.12C138.124 44.9933 138.214 44.83 138.214 44.63C138.214 44.43 138.131 44.2833 137.964 44.19C137.797 44.0967 137.551 44.02 137.224 43.96L136.884 43.9C136.551 43.84 136.247 43.7533 135.974 43.64C135.701 43.5267 135.484 43.37 135.324 43.17C135.164 42.97 135.084 42.7133 135.084 42.4C135.084 41.9333 135.257 41.5733 135.604 41.32C135.951 41.06 136.411 40.93 136.984 40.93C137.537 40.93 137.991 41.0567 138.344 41.31C138.704 41.5567 138.937 41.8933 139.044 42.32L138.084 42.59C138.024 42.29 137.897 42.08 137.704 41.96C137.511 41.8333 137.271 41.77 136.984 41.77C136.704 41.77 136.484 41.8233 136.324 41.93C136.164 42.03 136.084 42.1733 136.084 42.36C136.084 42.56 136.161 42.7067 136.314 42.8C136.474 42.8933 136.687 42.9633 136.954 43.01L137.304 43.07C137.657 43.13 137.981 43.2133 138.274 43.32C138.567 43.4267 138.797 43.58 138.964 43.78C139.137 43.98 139.224 44.2467 139.224 44.58C139.224 45.0733 139.041 45.4567 138.674 45.73C138.307 46.0033 137.814 46.14 137.194 46.14ZM140.428 46V41.07H141.458V46H140.428ZM140.948 40.4C140.748 40.4 140.578 40.3367 140.438 40.21C140.305 40.0767 140.238 39.9067 140.238 39.7C140.238 39.4933 140.305 39.3267 140.438 39.2C140.578 39.0667 140.748 39 140.948 39C141.155 39 141.325 39.0667 141.458 39.2C141.591 39.3267 141.658 39.4933 141.658 39.7C141.658 39.9067 141.591 40.0767 141.458 40.21C141.325 40.3367 141.155 40.4 140.948 40.4ZM142.747 43.56V43.41C142.747 42.89 142.85 42.4467 143.057 42.08C143.27 41.7133 143.55 41.43 143.897 41.23C144.243 41.03 144.623 40.93 145.037 40.93C145.517 40.93 145.883 41.02 146.137 41.2C146.397 41.38 146.587 41.5733 146.707 41.78H146.867V41.07H147.867V47.01C147.867 47.31 147.777 47.55 147.597 47.73C147.423 47.91 147.183 48 146.877 48H143.557V47.1H146.557C146.75 47.1 146.847 47 146.847 46.8V45.23H146.687C146.613 45.35 146.51 45.4733 146.377 45.6C146.243 45.7267 146.067 45.83 145.847 45.91C145.633 45.99 145.363 46.03 145.037 46.03C144.623 46.03 144.24 45.9333 143.887 45.74C143.54 45.54 143.263 45.2567 143.057 44.89C142.85 44.5167 142.747 44.0733 142.747 43.56ZM145.317 45.13C145.763 45.13 146.13 44.99 146.417 44.71C146.71 44.4233 146.857 44.03 146.857 43.53V43.44C146.857 42.9267 146.713 42.5333 146.427 42.26C146.14 41.98 145.77 41.84 145.317 41.84C144.877 41.84 144.51 41.98 144.217 42.26C143.93 42.5333 143.787 42.9267 143.787 43.44V43.53C143.787 44.03 143.93 44.4233 144.217 44.71C144.51 44.99 144.877 45.13 145.317 45.13ZM149.383 46V41.07H150.393V41.81H150.553C150.646 41.61 150.813 41.4233 151.053 41.25C151.293 41.0767 151.65 40.99 152.123 40.99C152.496 40.99 152.826 41.0733 153.113 41.24C153.406 41.4067 153.636 41.6433 153.803 41.95C153.97 42.25 154.053 42.6133 154.053 43.04V46H153.023V43.12C153.023 42.6933 152.916 42.38 152.703 42.18C152.49 41.9733 152.196 41.87 151.823 41.87C151.396 41.87 151.053 42.01 150.793 42.29C150.54 42.57 150.413 42.9767 150.413 43.51V46H149.383ZM156.155 46.14C155.922 46.14 155.725 46.0633 155.565 45.91C155.412 45.7567 155.335 45.56 155.335 45.32C155.335 45.08 155.412 44.8867 155.565 44.74C155.725 44.5867 155.922 44.51 156.155 44.51C156.389 44.51 156.582 44.5867 156.735 44.74C156.895 44.8933 156.975 45.0867 156.975 45.32C156.975 45.56 156.895 45.7567 156.735 45.91C156.582 46.0633 156.389 46.14 156.155 46.14Z" fill="#71717A"/>
<path d="M47 1H19C9.05887 1 1 9.05887 1 19V47C1 56.9411 9.05887 65 19 65H47C56.9411 65 65 56.9411 65 47V19C65 9.05887 56.9411 1 47 1Z" fill="#10B981" fill-opacity="0.1" stroke="#6EE7B7" stroke-opacity="0.35" stroke-width="2"/>
<path d="M47 4H19C10.7157 4 4 10.7157 4 19V47C4 55.2843 10.7157 62 19 62H47C55.2843 62 62 55.2843 62 47V19C62 10.7157 55.2843 4 47 4Z" stroke="#10B981" stroke-opacity="0.25"/>
<path d="M33 19L45 26V40L33 47L21 40V26L33 19Z" fill="#6EE7B7"/>
</svg>
