<svg width="66" height="66" viewBox="0 0 66 66" fill="none" xmlns="http://www.w3.org/2000/svg">
<path d="M47 1H19C9.05887 1 1 9.05887 1 19V47C1 56.9411 9.05887 65 19 65H47C56.9411 65 65 56.9411 65 47V19C65 9.05887 56.9411 1 47 1Z" fill="#10B981" fill-opacity="0.1" stroke="#6EE7B7" stroke-opacity="0.35" stroke-width="2"/>
<path d="M47 4H19C10.7157 4 4 10.7157 4 19V47C4 55.2843 10.7157 62 19 62H47C55.2843 62 62 55.2843 62 47V19C62 10.7157 55.2843 4 47 4Z" stroke="#10B981" stroke-opacity="0.25"/>
<path d="M33 19L45 26V40L33 47L21 40V26L33 19Z" fill="#6EE7B7"/>
</svg>
